<svg height="43" viewBox="0 0 86 43" width="86" xmlns="http://www.w3.org/2000/svg"><g fill="none" fill-rule="evenodd"><path d="m73.738 16.019a1 1 0 0 1 -1-1v-4.423h-.368c-2.287 0-3.138.378-3.138 2.461v4.876l-.001.031v1.069c-.001.037-.003.071-.003.11v6.813c0 .832-.16 1.494-.492 2.009-.623.961-1.858 1.398-3.834 1.4-1.975-.002-3.21-.439-3.833-1.399-.332-.515-.493-1.178-.493-2.01v-6.813c0-.039-.002-.073-.003-.11v-1.069l-.001-.03v-4.877c0-2.083-.85-2.46-3.138-2.46h-.72c-2.288 0-3.139.377-3.139 2.46v12.899c0 2.074.468 3.831 1.372 5.247 1.746 2.744 5.129 4.206 9.937 4.206h.036c4.808 0 8.19-1.462 9.937-4.206.904-1.416 1.372-3.173 1.372-5.247v-9.936z" fill="#a6c307"/><path d="m79.808 3.597h5.25v5.297h-5.25z"/><path d="m84.314 8.894-3.763-.001a.743.743 0 0 1 -.743-.744l.001-3.809c0-.41.333-.743.744-.743l3.762.001c.41 0 .743.333.743.744l-.001 3.81c0 .41-.333.742-.743.742m-5.014-5.296-2.556-.001a.505.505 0 0 1 -.504-.505v-2.587c0-.28.227-.505.505-.505l2.556.001c.278 0 .505.226.505.505l-.001 2.587a.505.505 0 0 1 -.505.505" fill="#a6c307"/><path d="m0 10.592h17.96v24.503h-17.96z"/><path d="m14.605 18.444c0 3.06-.782 4.72-4.904 4.72h-6.347v-7.9c0-1.095.408-1.503 1.503-1.503h4.844c3.106 0 4.904.767 4.904 4.683m-4.905-7.852h-5.472c-2.924 0-4.228 1.304-4.228 4.228v18.783c0 1.13.363 1.492 1.493 1.492h.37c1.129 0 1.491-.362 1.491-1.492v-7.307h6.347c5.634 0 8.258-2.496 8.258-7.852 0-5.357-2.624-7.852-8.258-7.852m20.062 16.061v2.575c0 2.1-.778 3.314-4.756 3.314-2.628 0-3.906-.95-3.906-2.907 0-2.146 1.282-2.982 4.572-2.982zm-4.756-10.675c-2.168 0-3.528.272-4.043.375-.913.198-1.294.449-1.294 1.487v.296c0 .407.06.688.189.886.15.231.393.348.72.348.16 0 .345-.026.566-.082.521-.13 2.188-.4 4.01-.4 3.273 0 4.608.907 4.608 3.13v1.982h-4.127c-5.307 0-7.778 1.79-7.778 5.634 0 3.728 2.552 5.781 7.186 5.781 5.507 0 7.963-1.874 7.963-6.077v-7.321c0-4.064-2.617-6.04-8-6.04zm26.15.875c-.234-.293-.676-.334-1.12-.334h-.332c-1.104 0-1.537.34-1.782 1.4l-3.068 12.756c-.383 1.567-.921 1.854-1.842 1.854-1.128 0-1.58-.27-2.029-1.86l-3.474-12.756c-.288-1.068-.712-1.394-1.817-1.394h-.296c-.446 0-.89.041-1.118.339-.228.297-.15.742-.033 1.179l3.512 12.866c.66 2.462 1.442 4.5 4.369 4.5.546 0 1.051-.076 1.471-.218-.887 2.791-1.79 4.023-4.453 4.296-.54.045-.891.122-1.087.385-.203.272-.157.661-.084 1.01l.073.33c.159.762.43 1.235 1.286 1.235.09 0 .187-.005.29-.013 3.976-.26 6.107-2.401 7.353-7.388l4.253-17.013c.101-.436.162-.88-.071-1.174m27.648-7.963h-5.066c-.552 0-1 .447-1 1l-.001.706h.351c2.288 0 3.139.378 3.139 2.461v2.963h2.575a1 1 0 0 0 1-1l.002-5.128a1 1 0 0 0 -1-1.001" fill="#a6c307"/></g></svg>